# xmcd
#
# Track frame offsets:
#	150
#	11715
#	22390
#	34837
#	47300
#	55805
#	67680
#	78065
#	85732
#	95962
#	111745
#	122450
#	137352
#	149012
#	159145
#	170595
#	182022
#	193197
#	202590
#	212595
#	222317
#	233287
#	245095
#	255120
#	265412
#	281315
#	286212
#	290975
#	295712
#	304910
#	307435
#	312215
#	324785
#
# Disc length: 4434 seconds
#
# Revision: 1
# Processed by: cddbd v1.5.2PL0 Copyright (c) Steve Scherf et al.
# Submitted via: audiograbber 1.80
#
DISCID=dd115021
DTITLE=Darrell McCALL - Real McCall disc 5
DYEAR=196
DGENRE=Country
TTITLE0=Sourwood Mountain 
TTITLE1=Don't Wait Till Tomorrow 
TTITLE2=Strange Little Melody 
TTITLE3=Picture On The Wall 
TTITLE4=Cindy 
TTITLE5=Rosewood Casket (& ROY DRUSKY) 
TTITLE6=I'll Cry Again Tomorrow (& ROY DRUSKY) 
TTITLE7=If You've Got The Money, I've Got The Time 
TTITLE8=Oh Lonesome Me 
TTITLE9=Heartbreak Avenue 
TTITLE10=Peace In The Valley 
TTITLE11=Release Me 
TTITLE12=Answer To `Anymore' 
TTITLE13=Ages And Ages Ago 
TTITLE14=Under Your Spell Again 
TTITLE15=Sweet Dreams 
TTITLE16=Accidentally On Purpose 
TTITLE17=Dear One 
TTITLE18=I Can Take His Baby Away 
TTITLE19=Anotherday, Another Dollar 
TTITLE20=A Stranger Was Here 
TTITLE21=There's Still A Lot Of Love In San Antone 
TTITLE22=Helpless 
TTITLE23=It's The Water 
TTITLE24=Eleven Roses 
TTITLE25=Lone Star Beer Commercial 
TTITLE26=Coors Beer Commercial, 1 
TTITLE27=Coors Beer Commercial, 2 
TTITLE28=Coors Beer Commercial, 3 
TTITLE29=Coors Beer Commercial, 4 
TTITLE30=Coors Beer Commercial, 5 
TTITLE31=Bad Mouthin' 
TTITLE32=This I Gotta See 
EXTD=
EXTT0=
EXTT1=
EXTT2=
EXTT3=
EXTT4=
EXTT5=
EXTT6=
EXTT7=
EXTT8=
EXTT9=
EXTT10=
EXTT11=
EXTT12=
EXTT13=
EXTT14=
EXTT15=
EXTT16=
EXTT17=
EXTT18=
EXTT19=
EXTT20=
EXTT21=
EXTT22=
EXTT23=
EXTT24=
EXTT25=
EXTT26=
EXTT27=
EXTT28=
EXTT29=
EXTT30=
EXTT31=
EXTT32=
PLAYORDER=
